PathFileType	4	(X/Y/Z)	D:\TRACE\v60_Jaco2_6-2-23\JustArmDRS_Motion1_1-v60.trc
DataRate	CameraRate	NumFrames	NumMarkers	Units	OrigDataRate	OrigDataStartFrame	OrigNumFrames
100.00	100.00	      35	9	mm	100.00	5134	      6844
Frame#	Time	front left toe			Front right toe			aft left toe			aft right toe			Arm			FL body			FR body			AL Body			AR Body			
		X1	Y1	Z1	X2	Y2	Z2	X3	Y3	Z3	X4	Y4	Z4	X5	Y5	Z5	X6	Y6	Z6	X7	Y7	Z7	X8	Y8	Z8	X9	Y9	Z9	

5134	51.330	-206.05753	26.28259	-160.05806	201.96504	27.57892	-204.65366	-139.17081	0.55960	443.90732	262.95059	6.17414	431.98550	28.07345	1126.61829	-593.58276	-104.05135	587.90491	-297.20096	55.13997	590.54236	-313.41534	-8.28738	570.48083	643.25940	147.32759	567.04047	628.49200	
5135	51.340	-204.55455	26.22546	-160.08916	203.35626	27.73569	-204.57785	-138.01749	0.35772	443.87405	263.78040	6.17427	432.10715	30.05825	1126.32776	-593.53137	-103.43071	587.96991	-297.08893	56.18747	590.91437	-313.67438	-7.30842	570.24921	643.31628	148.30226	566.81830	628.60852	
5136	51.350	-203.57365	26.08783	-160.01772	204.29160	27.83076	-204.62869	-137.50243	-0.04531	443.74777	264.94882	6.03967	432.05731	31.52326	1126.29468	-594.01672	-102.41511	588.08173	-297.12219	57.25171	591.05127	-313.61697	-6.61494	570.18402	643.67188	149.64848	566.87592	628.85797	
5137	51.360	-203.03191	26.33714	-159.83379	204.94554	27.83069	-204.59416	-136.23601	0.08693	443.81155	266.11313	5.81311	432.06656	33.63599	1126.05444	-593.72028	-101.13465	587.96198	-296.85440	58.15181	590.87964	-313.16449	-5.32868	569.83307	644.27271	150.87433	567.07220	629.02405	
5138	51.370	-201.68271	26.21128	-159.87662	206.27116	27.84819	-204.35310	-135.45628	0.08893	443.93628	266.88907	5.68427	432.27393	35.64192	1125.88220	-593.82513	-100.06454	588.31152	-296.86078	58.92614	590.81055	-312.85535	-4.46772	569.79608	643.82373	151.77977	566.66516	628.85022	
5139	51.380	-200.81090	26.33008	-159.90918	206.96327	27.81178	-204.34721	-134.42143	-0.22176	444.05685	267.24759	5.60680	432.29355	37.35657	1125.62805	-593.91644	-98.89235	588.22900	-296.94147	60.84078	590.96027	-313.33093	-3.29416	569.54163	643.80194	152.66426	566.50183	628.85468	
5140	51.390	-200.16574	26.54730	-159.80608	207.98291	27.83385	-204.38374	-133.28763	-0.36176	444.03833	269.26617	5.69742	432.24673	39.55530	1125.30945	-594.02759	-97.95964	588.37573	-296.83578	61.84340	591.10522	-313.23755	-2.52686	569.41724	643.78784	153.91901	566.28796	628.97418	
5141	51.400	-198.68365	26.39821	-159.86520	209.00327	27.93641	-204.25272	-132.23289	-0.43375	443.97583	269.75595	5.21124	432.17136	41.10276	1125.12830	-594.52209	-96.51831	588.49780	-296.67480	62.77546	590.96179	-312.79843	-1.71669	569.35858	643.89642	154.93297	566.12500	629.05347	
5142	51.410	-197.69795	26.47021	-159.76183	209.99805	28.03788	-204.22177	-131.59261	-0.48097	444.01331	270.67017	5.23445	432.36002	43.17593	1124.93286	-594.31122	-95.43269	588.79413	-296.62088	64.16065	591.21204	-313.46097	-0.14518	569.26678	643.82306	156.31728	566.01892	629.13763	
5143	51.420	-197.06738	26.69465	-159.58589	211.13632	28.09604	-204.20717	-130.60201	-0.54464	444.04712	271.96835	5.24355	432.59271	45.14246	1124.59619	-594.59412	-94.34124	588.63812	-296.91180	65.56516	591.28436	-313.10843	0.81441	569.10205	644.04480	156.80190	565.53204	629.11475	
5144	51.430	-195.71236	26.60949	-159.85051	212.06232	28.01971	-204.18059	-129.61644	-0.77344	443.99777	272.59702	5.06041	432.39276	46.61306	1124.37903	-594.64166	-92.79991	588.70367	-296.60410	66.37050	591.20868	-312.63620	1.94076	568.87555	644.09290	158.04501	565.37604	629.26514	
5145	51.440	-194.86850	26.67967	-159.85303	212.89029	28.07835	-204.04176	-128.53415	-0.67176	444.17245	273.93747	4.99582	432.41211	48.51431	1124.37012	-594.91254	-91.64501	588.82910	-296.67477	68.11713	591.29382	-312.89767	2.71451	568.77722	644.13953	159.13368	565.15662	629.26782	
5146	51.450	-194.05435	26.70882	-159.67615	214.17229	28.06493	-203.91216	-127.50929	-0.87075	444.19226	274.84692	4.97217	432.50031	50.25211	1124.31519	-594.67621	-90.25816	588.76819	-296.49841	69.16799	591.27112	-313.41864	4.07238	568.62097	644.15826	160.06682	564.82556	629.25562	
5147	51.460	-192.60011	26.85277	-159.78786	214.76549	27.93304	-204.05734	-126.54856	-0.90436	444.13403	275.58826	4.67610	432.55362	52.17002	1124.06494	-594.68842	-89.17954	589.06000	-296.71664	70.72898	591.24744	-312.87271	5.19946	568.32751	643.55725	161.36426	564.48871	629.18243	
5148	51.470	-191.94580	27.04777	-159.64180	215.89764	28.08676	-203.85756	-125.66365	-0.89291	444.13364	276.98856	4.68733	432.69553	53.67052	1124.17468	-594.71405	-87.74998	589.12665	-296.49408	71.46759	591.18091	-312.60275	6.11875	568.24823	643.94287	162.64529	564.37982	629.27972	
5149	51.480	-191.12071	26.96483	-159.63950	217.27100	28.37810	-203.92880	-124.86981	-0.88261	444.12161	277.63315	4.49786	432.57935	55.22454	1124.02344	-594.47687	-86.63223	589.01068	-296.69583	73.19893	591.27826	-312.80957	7.69434	568.17352	643.98102	163.81166	564.13446	629.32251	
5150	51.490	-189.94331	26.93460	-159.69908	217.86166	28.31704	-204.05113	-123.92798	-0.87698	443.87524	278.88290	4.39284	432.62961	56.95910	1124.09534	-594.60101	-85.55383	589.22278	-296.71628	73.98837	591.11981	-312.49860	9.18584	567.89093	644.80664	165.30522	564.02844	629.75830	
5151	51.500	-188.89658	27.22649	-159.73592	219.16266	28.31141	-203.91225	-122.87989	-0.90741	443.91003	279.90366	4.34775	432.81659	58.35499	1124.07117	-594.57288	-83.94004	589.43988	-296.34906	75.33222	591.12915	-312.42441	10.06646	567.78925	644.22821	166.58737	563.92731	629.52014	
5152	51.510	-188.06392	27.24426	-159.62328	219.89871	28.39503	-203.76357	-121.60575	-1.38182	444.16647	280.57700	3.90954	432.81775	59.97657	1124.16187	-594.38513	-82.92989	589.49353	-296.51691	77.02165	591.21680	-312.77933	11.31790	567.62085	644.31635	167.97931	563.91705	629.43158	
5153	51.520	-186.82600	27.13470	-159.55516	221.03554	28.32028	-203.81508	-120.49310	-1.56606	444.25009	281.91751	3.99494	432.75238	61.25237	1124.17334	-594.32257	-81.53458	589.33508	-296.55814	78.33594	591.21051	-312.83505	12.40471	567.56537	644.30701	168.87344	563.43298	629.47375	
5154	51.530	-186.10065	27.45339	-159.58696	221.90765	28.29603	-203.69711	-119.89870	-1.32888	444.24768	282.84576	3.81856	432.68445	63.15013	1124.08093	-594.05347	-79.63340	589.42102	-296.04883	78.96055	590.86115	-312.02618	13.55532	567.50500	644.09662	169.75587	562.78442	629.75446	
5155	51.540	-185.10847	27.51003	-159.55949	222.70955	28.27134	-203.53596	-118.81632	-1.45867	444.31366	283.60678	3.71770	432.92316	64.26620	1124.08826	-594.02765	-78.64149	589.57428	-296.39243	80.58643	590.97144	-312.19202	15.20857	567.36151	644.20428	170.67110	562.51025	629.34790	
5156	51.550	-184.04283	27.39057	-159.64381	223.83186	28.46081	-203.56731	-117.64491	-1.57114	444.35059	284.70880	3.50531	433.03738	65.79436	1123.96411	-594.03363	-77.60038	589.52496	-296.41983	81.55015	591.06720	-312.33640	16.16363	567.35822	644.48297	172.48593	562.85162	629.88104	
5157	51.560	-183.03215	27.34183	-159.61700	225.05707	28.51391	-203.61073	-116.73016	-1.65312	444.42236	285.36719	3.37290	432.92374	67.06795	1123.90332	-593.96240	-76.25864	589.81628	-296.19998	83.20452	590.94556	-312.20392	17.30927	567.27466	644.45154	173.71979	562.66962	629.94714	
5158	51.570	-182.08890	27.44470	-159.45663	225.48541	28.33465	-203.75806	-115.98547	-1.68528	444.30106	286.81839	3.56841	432.86972	68.36515	1124.00903	-593.95868	-74.99338	589.82721	-296.26999	84.78292	591.00244	-312.62946	18.43355	567.31122	644.61365	175.16095	562.94830	629.84613	
5159	51.580	-181.39282	27.71077	-159.50609	226.71666	28.37008	-203.42970	-114.80499	-1.86825	444.29459	287.65881	3.38707	433.03720	69.27654	1124.21655	-593.93689	-73.56438	589.77393	-296.47687	86.19616	590.94128	-312.55417	19.37746	567.22760	644.31396	176.23959	562.62366	629.81189	
5160	51.590	-180.08835	27.73185	-159.53944	227.67000	28.36643	-203.46068	-113.79005	-1.82550	444.11957	288.28574	3.06498	433.13687	70.37235	1124.46301	-593.56311	-72.62756	589.96887	-296.41217	86.85268	590.81708	-312.28442	21.41368	567.27313	644.94055	177.26918	562.48859	629.74261	
5161	51.600	-179.27171	27.62645	-159.53671	228.55551	28.18134	-203.52994	-113.16349	-1.53105	444.18607	289.62589	3.17359	433.18774	71.52141	1124.58716	-593.32263	-70.76018	589.92822	-296.34039	88.53788	590.78015	-312.23407	21.90540	567.25665	644.50507	177.81558	562.02612	629.87598	
5162	51.610	-178.40041	27.80316	-159.52644	229.65724	28.46511	-203.44791	-112.27495	-1.66001	444.18176	290.22861	2.97088	433.13623	72.18811	1124.85413	-593.22418	-69.72343	590.12024	-296.47498	89.58635	590.91791	-312.20831	22.99987	567.18933	644.24402	178.74300	561.91473	629.84644	
5163	51.620	-177.11552	27.69645	-159.57190	230.59958	28.58023	-203.39647	-111.25894	-1.80930	444.19193	291.30399	3.02920	433.00110	73.01663	1125.11047	-592.89136	-68.36356	590.32465	-296.47565	91.11420	591.01428	-312.23087	23.77066	567.16339	644.51544	180.13702	562.05548	629.93719	
5164	51.630	-176.43132	27.93367	-159.63701	231.54533	28.56540	-203.56656	-110.51995	-1.78147	444.07779	292.50269	3.06248	433.29419	73.66306	1125.45178	-592.59296	-67.29000	590.54315	-296.55054	92.64352	591.15753	-312.66553	24.96290	567.15796	644.45313	181.45872	561.96368	629.89490	
5165	51.640	-175.88326	28.13146	-159.57127	232.46805	28.59212	-203.45131	-109.50629	-1.91549	444.14908	293.01236	2.64886	433.22687	74.40192	1125.79041	-592.42572	-65.53371	590.18958	-296.71750	94.25190	591.15997	-312.52570	26.14162	567.12213	644.47290	182.94629	562.06549	629.90735	
5166	51.650	-174.67268	28.11648	-159.61031	233.28401	28.37430	-203.50360	-108.47070	-1.97214	444.23520	293.82507	2.69616	433.31577	74.97910	1125.98975	-592.16492	-64.68658	590.52197	-296.53497	94.69827	591.06042	-312.41122	27.45056	567.21173	644.42810	183.88998	561.85077	629.78595	
5167	51.660	-173.54425	28.16220	-159.71964	234.09543	28.46168	-203.33990	-107.88974	-2.09797	444.33572	295.12646	2.92825	433.40912	75.71432	1126.83167	-591.53754	-63.22508	590.81830	-296.68573	96.48425	591.13513	-312.76154	28.39703	567.16663	644.46240	184.79750	561.75385	629.70715	
5168	51.670	-172.98558	28.33235	-159.51425	235.21388	28.44845	-203.14050	-106.75444	-2.25019	444.28876	295.69431	2.75516	433.10199	76.17084	1127.45410	-591.22241	-62.27156	590.97272	-296.75525	97.05273	591.06390	-312.39990	29.49276	567.01923	644.11755	186.09253	561.60889	629.58765	
